<svg width="24" height="24" viewBox="0 0 24 24" fill="none" xmlns="http://www.w3.org/2000/svg">
<path d="M1.53015 11.2051C2.91175 11.3075 4.07806 11.9758 4.93347 13.0615C4.73103 13.2283 4.54155 13.3953 4.36902 13.5615L4.19812 13.7314C3.69003 14.2556 3.31238 14.7635 3.31238 15.3604C3.31246 15.606 3.39746 15.8286 3.52625 16.0273L3.66882 16.2178C3.82201 16.4011 4.01116 16.5698 4.23035 16.7324L4.45886 16.8936C4.77743 17.1061 5.14864 17.3114 5.5575 17.5088C4.98186 18.189 4.17781 18.8475 2.88855 19.333L2.62195 19.4287L1.96082 19.6533L2.09265 18.9678C2.30762 17.8449 2.37133 16.4814 2.23425 15.1904C2.10576 13.9806 1.80043 12.8325 1.27625 12.0059L1.16785 11.8447L0.6698 11.1406L1.53015 11.2051ZM15.0546 9.99512L15.3075 9.99707C16.583 10.0186 17.8835 10.2043 19.1825 10.4912C19.2291 10.6252 19.2399 10.7411 19.2167 10.8564C19.1989 10.9447 19.1615 11.0333 19.1063 11.1299L19.0448 11.2305C18.8304 11.5587 18.409 11.9251 17.9423 12.2979C17.5347 12.6233 17.0954 12.9552 16.7323 13.333L16.5809 13.498C16.2175 13.9184 15.9458 14.4622 16.0507 15.0547L16.077 15.1738C16.3164 16.0896 17.0834 16.6569 17.9159 17.0488L18.2753 17.207C18.9534 17.4853 19.6145 17.6672 20.1796 17.8262C20.0687 17.8991 19.9418 17.9719 19.7938 18.04L19.6239 18.1123C19.218 18.2731 18.7122 18.4062 18.1522 18.5088L17.576 18.6016C16.1967 18.793 14.6038 18.8171 13.3241 18.7227L12.7968 18.6748C12.6136 18.6551 12.4208 18.6288 12.2206 18.5986C12.7384 18.4524 13.217 18.294 13.619 18.0986L13.7938 18.0088C14.2516 17.7589 14.6679 17.4102 14.6874 16.876V16.8604L14.6718 16.8594L13.829 16.8291L13.8134 16.8281L13.8124 16.8438C13.8115 16.869 13.791 16.9204 13.7245 16.9902C13.6748 17.0423 13.6006 17.1043 13.493 17.1719L13.3749 17.2412C13.1137 17.3838 12.7487 17.5235 12.328 17.6553L11.8905 17.7842C11.1291 17.9949 10.2649 18.1779 9.45691 18.3613L10.076 17.6221C10.2451 17.412 10.3983 17.2125 10.5282 17.0264L10.6503 16.8447C10.8002 16.6101 10.9333 16.428 10.9374 16.1152V16.0996H10.9218L10.0927 16.0889C10.0924 16.0862 10.0927 16.0828 10.0917 16.0801C10.091 16.0783 10.0887 16.075 10.0848 16.0723C10.0792 16.0686 10.0726 16.0684 10.0682 16.0703C10.0648 16.0719 10.0624 16.075 10.0614 16.0762L10.0585 16.0801C10.054 16.0872 10.0478 16.1013 10.0409 16.1182C10.0337 16.1357 10.025 16.1585 10.0135 16.1846C10.002 16.2107 9.98809 16.2405 9.97156 16.2725L9.91296 16.374C9.8527 16.4682 9.77706 16.5764 9.68933 16.6943L9.39441 17.0732C9.2112 17.301 9.00166 17.5475 8.78699 17.7998C8.37683 17.6751 7.97152 17.5426 7.58191 17.4023L7.19421 17.2578C6.40325 16.9551 5.69232 16.6248 5.16101 16.3027L4.94421 16.166C4.73947 16.0294 4.5716 15.8946 4.44812 15.7734L4.33972 15.6572C4.21608 15.5093 4.18756 15.4076 4.18738 15.3604C4.18738 15.3231 4.19905 15.2688 4.22449 15.2012C4.24981 15.1338 4.28832 15.0535 4.3407 14.9639C4.41924 14.8295 4.52879 14.6741 4.67175 14.5088L4.82703 14.3398C5.15878 13.9977 5.60383 13.6249 6.11707 13.252L6.65125 12.8799C7.94307 12.0162 9.5272 11.1993 10.8378 10.7139L11.3817 10.5273C12.4147 10.2017 13.4878 10.0385 14.5839 10.0029L15.0546 9.99512ZM16.2157 11.5947C16.0128 11.5948 15.8182 11.6749 15.6747 11.8184C15.5311 11.9619 15.4501 12.1573 15.4501 12.3604C15.4502 12.5126 15.4956 12.6603 15.579 12.7852L15.6747 12.9014C15.8182 13.0448 16.0128 13.1259 16.2157 13.126C16.3679 13.126 16.5157 13.0802 16.6405 12.9971L16.7577 12.9014C16.9011 12.7579 16.9812 12.5632 16.9813 12.3604C16.9813 12.1573 16.9012 11.9619 16.7577 11.8184C16.6141 11.6748 16.4188 11.5947 16.2157 11.5947ZM8.9989 6.7041C10.1286 6.70012 11.0087 6.98743 11.7118 7.42773L12.0028 7.625C12.6244 8.08228 13.0975 8.64489 13.5438 9.19629C12.8275 9.27115 12.1182 9.40259 11.4208 9.60156L11.118 9.69238C10.4455 9.90435 9.69876 10.2095 8.94128 10.5732C9.25012 9.46041 9.16335 8.45268 8.72937 7.48633L8.6366 7.29102L8.34363 6.70508L8.9989 6.7041ZM21.3436 12.0342L21.3368 12.0293C21.2625 11.9787 21.1984 11.9151 21.1473 11.8418L21.1005 11.7656C21.0446 11.66 21.0156 11.5423 21.0155 11.4229L21.0214 11.333C21.0287 11.2742 21.0432 11.2165 21.0643 11.1611L21.1014 11.0791C21.1574 10.9737 21.2381 10.8836 21.3368 10.8164L21.3436 10.8115V1.51562H22.1561V10.8105L22.163 10.8154C22.2373 10.866 22.3013 10.9296 22.3524 11.0029L22.3993 11.0791C22.4552 11.1849 22.4842 11.3032 22.4843 11.4229L22.4784 11.5117C22.4711 11.5706 22.4566 11.6282 22.4354 11.6836L22.3993 11.7656C22.3433 11.8712 22.2618 11.9611 22.163 12.0283L22.1561 12.0332V15.1729C22.156 15.5896 22.0093 15.9575 21.7675 16.2139L21.6581 16.3164C21.3901 16.5396 21.0474 16.6424 20.705 16.6211L20.5585 16.6045C19.8324 16.4835 19.1863 15.7851 19.1034 14.668L19.0936 14.4385L19.0946 14.4229L19.1815 12.4678L20.619 14.4229H19.9061V14.4395C19.9086 14.9271 20.0189 15.2538 20.1718 15.4658C20.2864 15.6248 20.425 15.7184 20.5594 15.7676L20.6923 15.8027C20.8218 15.8242 20.9426 15.8052 21.0438 15.7539L21.1385 15.6924C21.2542 15.596 21.3435 15.4461 21.3436 15.1729V12.0342Z" fill="white" stroke="white" stroke-width="0.03125"/>
</svg>
